<?xml version="1.0" standalone="no"?>
<!DOCTYPE svg PUBLIC "-//W3C//DTD SVG 20010904//EN"
 "http://www.w3.org/TR/2001/REC-SVG-20010904/DTD/svg10.dtd">
<svg version="1.0" xmlns="http://www.w3.org/2000/svg"
 width="1280.000000pt" height="720.000000pt" viewBox="0 0 1280.000000 720.000000"
 preserveAspectRatio="xMidYMid meet">
<metadata>
Created by potrace 1.15, written by Peter Selinger 2001-2017
</metadata>
<g transform="translate(0.000000,720.000000) scale(0.100000,-0.100000)"
fill="#000000" stroke="none">
<path d="M7755 6130 c-40 -63 -48 -70 -77 -70 -18 0 -325 -23 -683 -50 -903
-68 -1315 -99 -2505 -185 -569 -41 -1058 -77 -1085 -80 l-51 -6 -34 66 c-38
72 -50 79 -135 79 l-50 1 -48 -80 c-52 -86 -61 -92 -143 -94 -110 -2 -142 -11
-189 -56 l-45 -41 0 -70 c0 -38 7 -112 15 -164 8 -52 15 -122 15 -155 0 -33 7
-89 16 -125 8 -36 28 -155 44 -264 17 -109 35 -205 40 -212 8 -8 7 -13 -1 -16
-8 -3 -8 -12 3 -33 8 -17 21 -59 27 -95 40 -211 123 -389 240 -513 94 -100
186 -141 377 -169 l141 -21 92 22 c51 12 120 23 154 26 92 6 363 64 802 171
215 53 424 99 465 104 41 4 103 15 136 24 34 9 67 16 73 16 22 0 9 -376 -23
-680 -7 -63 -10 -124 -8 -137 4 -22 10 -25 215 -109 59 -24 73 -27 105 -17 34
9 1046 362 1084 378 24 10 56 -134 39 -180 -23 -65 -6 -152 37 -185 23 -19 31
-41 58 -163 30 -133 31 -143 16 -174 -22 -45 -2 -135 39 -176 22 -22 33 -47
46 -112 15 -74 16 -91 4 -142 -26 -110 -25 -141 4 -232 39 -118 61 -140 230
-221 153 -74 199 -90 261 -90 95 0 122 16 504 312 333 258 365 286 368 315 2
18 -1 41 -7 51 -8 16 -4 25 26 51 l36 32 -6 197 c-9 333 -55 590 -162 902 -49
144 -66 252 -72 460 -10 365 42 636 151 783 11 16 74 73 138 128 75 63 120
109 124 125 10 40 -20 93 -56 101 -30 5 -30 7 -25 52 3 25 14 158 25 294 17
212 18 253 6 280 -21 50 -50 69 -123 81 l-68 11 -28 52 c-32 60 -49 66 -156
61 -62 -3 -65 -4 -74 -33 -12 -39 -10 -37 -40 -30 -20 5 -27 14 -29 38 l-3 32
-92 3 -93 3 -45 -71z m-1471 -1950 l0 -165 -47 -102 c-46 -99 -47 -103 -32
-132 8 -17 23 -34 32 -40 15 -8 16 -10 3 -15 -17 -6 -384 -121 -417 -131 -36
-10 -45 42 -47 283 l-1 217 28 61 c50 108 66 118 262 158 94 19 181 34 195 33
l25 -2 -1 -165z m75 -389 c-6 -16 -17 -32 -26 -35 -14 -6 -14 -4 -1 16 8 13
18 29 22 36 13 21 15 13 5 -17z"/>
</g>
</svg>
